# xmcd CD database file
#
# Track frame offsets:
#	182
#	18702
#	36670
#	56117
#	73740
#	93597
#	111832
#	126170
#	149030
#	171722
#	192610
#	206345
#
# Disc length: 2974 seconds
#
# Revision: 0
# Processed by: cddbd v1.4PL0 Copyright (c) Steve Scherf et al.
# Submitted via: CDex 1.50beta8
#
DISCID=cc0b9c0c
DTITLE=Storyville Jazz Band - Dixieland Hits
DYEAR=1994
DGENRE=Jazz
TTITLE0=Avalon
TTITLE1=Cechy krasne
TTITLE2=I've Found A New Baby
TTITLE3=When You're Smilling
TTITLE4=Tishomingo Blues
TTITLE5=Washington And Lee
TTITLE6=Stranger On The Shore
TTITLE7=Struttin' With Some Barbecue
TTITLE8=Dallas Blues
TTITLE9=Buorbon Street Parade
TTITLE10=Mountains Of Mourne
TTITLE11=Tiger Rag
EXTD=YEAR: 1994
EXTT0=
EXTT1=
EXTT2=
EXTT3=
EXTT4=
EXTT5=
EXTT6=
EXTT7=
EXTT8=
EXTT9=
EXTT10=
EXTT11=
PLAYORDER=
